<?xml version="1.0" encoding="UTF-8"?>
<svg xmlns="http://www.w3.org/2000/svg" xmlns:xlink="http://www.w3.org/1999/xlink" width="854" height="480" viewBox="0 0 854 480">
<defs>
<g>
<g id="glyph-0-0">
<path d="M 0 0 L 0 -0.28125 L 0.125 -0.28125 C 0.25 -0.28125 0.34375 -0.3125 0.40625 -0.375 C 0.476562 -0.445312 0.554688 -0.585938 0.640625 -0.796875 L 2.109375 -4.765625 L 2.640625 -4.765625 L 4.140625 -0.640625 C 4.191406 -0.492188 4.25 -0.394531 4.3125 -0.34375 C 4.382812 -0.300781 4.484375 -0.28125 4.609375 -0.28125 L 4.703125 -0.28125 L 4.703125 0 L 2.875 0 L 2.875 -0.28125 L 3.015625 -0.28125 C 3.285156 -0.28125 3.421875 -0.382812 3.421875 -0.59375 C 3.421875 -0.632812 3.414062 -0.675781 3.40625 -0.71875 C 3.394531 -0.757812 3.382812 -0.800781 3.375 -0.84375 L 3.109375 -1.59375 L 1.34375 -1.59375 L 1.09375 -0.890625 C 1.050781 -0.785156 1.03125 -0.691406 1.03125 -0.609375 C 1.03125 -0.390625 1.175781 -0.28125 1.46875 -0.28125 L 1.625 -0.28125 L 1.625 0 Z M 1.46875 -1.921875 L 2.984375 -1.921875 L 2.5625 -3.09375 C 2.5 -3.289062 2.4375 -3.472656 2.375 -3.640625 C 2.3125 -3.816406 2.265625 -3.988281 2.234375 -4.15625 C 2.203125 -3.988281 2.160156 -3.832031 2.109375 -3.6875 C 2.066406 -3.539062 2.003906 -3.363281 1.921875 -3.15625 Z "/>
</g>
<g id="glyph-0-1">
<path d="M 1.828125 0.0625 C 1.472656 0.0625 1.195312 -0.0351562 1 -0.234375 C 0.8125 -0.441406 0.71875 -0.773438 0.71875 -1.234375 L 0.71875 -2.84375 C 0.71875 -3.039062 0.660156 -3.164062 0.546875 -3.21875 C 0.441406 -3.269531 0.316406 -3.296875 0.171875 -3.296875 L 0.15625 -3.296875 L 0.15625 -3.578125 L 1.34375 -3.578125 L 1.34375 -1.28125 C 1.34375 -0.988281 1.390625 -0.757812 1.484375 -0.59375 C 1.585938 -0.4375 1.773438 -0.359375 2.046875 -0.359375 C 2.335938 -0.359375 2.550781 -0.457031 2.6875 -0.65625 C 2.820312 -0.851562 2.890625 -1.113281 2.890625 -1.4375 L 2.890625 -2.8125 C 2.890625 -3.019531 2.832031 -3.148438 2.71875 -3.203125 C 2.613281 -3.265625 2.488281 -3.296875 2.34375 -3.296875 L 2.328125 -3.296875 L 2.328125 -3.578125 L 3.515625 -3.578125 L 3.515625 -0.734375 C 3.515625 -0.535156 3.566406 -0.410156 3.671875 -0.359375 C 3.785156 -0.304688 3.914062 -0.28125 4.0625 -0.28125 L 4.078125 -0.28125 L 4.078125 0 L 3.015625 0 L 2.9375 -0.546875 L 2.90625 -0.546875 C 2.769531 -0.296875 2.609375 -0.128906 2.421875 -0.046875 C 2.234375 0.0234375 2.035156 0.0625 1.828125 0.0625 Z "/>
</g>
<g id="glyph-0-2">
<path d="M 1.59375 0.0625 C 1.257812 0.0625 1.015625 -0.0078125 0.859375 -0.15625 C 0.710938 -0.3125 0.640625 -0.582031 0.640625 -0.96875 L 0.640625 -3.203125 L 0.125 -3.203125 L 0.125 -3.46875 C 0.207031 -3.46875 0.296875 -3.484375 0.390625 -3.515625 C 0.492188 -3.546875 0.578125 -3.597656 0.640625 -3.671875 C 0.722656 -3.753906 0.785156 -3.851562 0.828125 -3.96875 C 0.878906 -4.082031 0.921875 -4.222656 0.953125 -4.390625 L 1.265625 -4.390625 L 1.265625 -3.578125 L 2.140625 -3.578125 L 2.140625 -3.203125 L 1.265625 -3.203125 L 1.265625 -0.953125 C 1.265625 -0.722656 1.3125 -0.550781 1.40625 -0.4375 C 1.5 -0.332031 1.617188 -0.28125 1.765625 -0.28125 C 1.847656 -0.28125 1.921875 -0.285156 1.984375 -0.296875 C 2.054688 -0.304688 2.125 -0.316406 2.1875 -0.328125 L 2.1875 -0.046875 C 2.132812 -0.015625 2.050781 0.0078125 1.9375 0.03125 C 1.820312 0.0507812 1.707031 0.0625 1.59375 0.0625 Z "/>
</g>
<g id="glyph-0-3">
<path d="M 1.921875 0.0625 C 1.429688 0.0625 1.046875 -0.0859375 0.765625 -0.390625 C 0.492188 -0.703125 0.359375 -1.171875 0.359375 -1.796875 C 0.359375 -2.421875 0.488281 -2.882812 0.75 -3.1875 C 1.019531 -3.488281 1.414062 -3.640625 1.9375 -3.640625 C 2.414062 -3.640625 2.789062 -3.488281 3.0625 -3.1875 C 3.34375 -2.882812 3.484375 -2.421875 3.484375 -1.796875 C 3.484375 -1.171875 3.347656 -0.703125 3.078125 -0.390625 C 2.816406 -0.0859375 2.429688 0.0625 1.921875 0.0625 Z M 1.921875 -0.28125 C 2.253906 -0.28125 2.488281 -0.40625 2.625 -0.65625 C 2.757812 -0.914062 2.828125 -1.296875 2.828125 -1.796875 C 2.828125 -2.296875 2.757812 -2.671875 2.625 -2.921875 C 2.488281 -3.171875 2.253906 -3.296875 1.921875 -3.296875 C 1.585938 -3.296875 1.351562 -3.171875 1.21875 -2.921875 C 1.082031 -2.671875 1.015625 -2.296875 1.015625 -1.796875 C 1.015625 -1.296875 1.082031 -0.914062 1.21875 -0.65625 C 1.351562 -0.40625 1.585938 -0.28125 1.921875 -0.28125 Z "/>
</g>
<g id="glyph-0-4">
</g>
<g id="glyph-0-5">
<path d="M 0.25 0 L 0.25 -0.28125 L 0.34375 -0.28125 C 0.488281 -0.28125 0.613281 -0.304688 0.71875 -0.359375 C 0.832031 -0.421875 0.890625 -0.554688 0.890625 -0.765625 L 0.890625 -4.03125 C 0.890625 -4.226562 0.832031 -4.351562 0.71875 -4.40625 C 0.613281 -4.457031 0.488281 -4.484375 0.34375 -4.484375 L 0.25 -4.484375 L 0.25 -4.765625 L 2.046875 -4.765625 C 2.617188 -4.765625 3.046875 -4.664062 3.328125 -4.46875 C 3.609375 -4.28125 3.75 -3.976562 3.75 -3.5625 C 3.75 -3.269531 3.671875 -3.039062 3.515625 -2.875 C 3.359375 -2.71875 3.160156 -2.597656 2.921875 -2.515625 L 2.921875 -2.5 C 3.222656 -2.445312 3.46875 -2.320312 3.65625 -2.125 C 3.851562 -1.925781 3.953125 -1.644531 3.953125 -1.28125 C 3.953125 -0.425781 3.378906 0 2.234375 0 Z M 2.015625 -2.65625 C 2.410156 -2.65625 2.679688 -2.726562 2.828125 -2.875 C 2.972656 -3.019531 3.046875 -3.25 3.046875 -3.5625 C 3.046875 -3.894531 2.96875 -4.125 2.8125 -4.25 C 2.65625 -4.375 2.390625 -4.4375 2.015625 -4.4375 L 1.5625 -4.4375 L 1.5625 -2.65625 Z M 2.203125 -0.328125 C 2.585938 -0.328125 2.859375 -0.398438 3.015625 -0.546875 C 3.171875 -0.703125 3.25 -0.957031 3.25 -1.3125 C 3.25 -1.65625 3.175781 -1.910156 3.03125 -2.078125 C 2.882812 -2.242188 2.613281 -2.328125 2.21875 -2.328125 L 1.5625 -2.328125 L 1.5625 -0.328125 Z "/>
</g>
</g>
</defs>
<g fill="rgb(100%, 100%, 100%)" fill-opacity="1">
<use xlink:href="#glyph-0-0" x="30" y="27.126953"/>
<use xlink:href="#glyph-0-1" x="35" y="27.126953"/>
<use xlink:href="#glyph-0-2" x="39" y="27.126953"/>
<use xlink:href="#glyph-0-3" x="41" y="27.126953"/>
<use xlink:href="#glyph-0-4" x="45" y="27.126953"/>
<use xlink:href="#glyph-0-5" x="47" y="27.126953"/>
</g>
</svg>
